# xmcd CD database file
# Copyright (C) 1995-1998 Ti Kan
#
# Track frame offsets:
#	150
#	17669
#	30535
#	45931
#	62754
#	74642
#	89174
#	106501
#	115087
#	139917
#	156065
#
# Disc length: 2238 seconds
#
# Revision: 1
# Processed by: cddbd v1.5.1PL0 Copyright (c) Steve Scherf et al.
# Submitted via: CDex 1.30
#
DISCID=8c08bc0b
DTITLE=Kenneth Brian - Kenneth Brian
DYEAR=2004
DGENRE=Country
TTITLE0=Wildcat Daddy
TTITLE1=Wide Open Spaces
TTITLE2=The River
TTITLE3=Closin' Time
TTITLE4=Road To Run
TTITLE5=349
TTITLE6=Ride
TTITLE7=First of the Month
TTITLE8=Blood Runs Deep
TTITLE9=Jukebox
TTITLE10=Hidden Track
EXTD=YEAR: 2004  ID3G:   2
EXTT0=
EXTT1=
EXTT2=
EXTT3=
EXTT4=
EXTT5=
EXTT6=
EXTT7=
EXTT8=
EXTT9=
EXTT10=
PLAYORDER=
